<svg xmlns="http://www.w3.org/2000/svg" xmlns:xlink="http://www.w3.org/1999/xlink" width="203" height="94" viewBox="0 0 203 94"><defs><path id="a" d="M0 35.92V.423h41.237v70.99H0z"/></defs><g fill="none" fill-rule="evenodd"><mask id="b" fill="#fff"><use xlink:href="#a"/></mask><path fill="#1D1D1B" d="M0 50.74h12.255c.096 6.145 3.304 8.97 8.46 8.97 5.446 0 8.072-3.216 8.072-7.605 0-12.384-27.427-13.36-27.427-33.936C1.36 8.03 8.56.422 20.618.422c12.158 0 19.55 7.51 19.648 19.697H28.008c-.095-5.46-2.818-8.094-7.39-8.094-4.473 0-7.1 2.537-7.1 6.437 0 11.895 27.72 12.286 27.72 33.74 0 10.727-7.49 19.21-20.62 19.21C8.072 71.413.098 63.905 0 50.74" mask="url(#b)"/><path fill="#1D1D1B" d="M76.842 1.35v31.3h-2.544l-.345-2.118c-1.12 1.556-3.104 2.638-5.217 2.638-4.226 0-7.158-3.114-7.158-8.777v-6.397c0-5.577 2.76-8.647 7.158-8.647 1.81 0 3.578.776 4.786 2.16V1.35h3.32zm-3.32 16.646c0-3.286-1.596-5.45-4.183-5.45-2.847 0-4.313 1.645-4.313 5.45v6.397c0 3.892 1.596 5.577 4.312 5.577 2.372 0 4.182-1.77 4.182-5.534v-6.44zm23.525 7.607c-.344 4.8-3.23 7.52-8.062 7.52-4.614 0-7.547-3.023-7.547-8.34V17.65c0-5.277 2.976-8.3 7.59-8.3 4.7 0 7.718 3.023 7.718 8.3v5.058H84.888v2.074c0 3.46 1.553 5.014 4.183 5.014 2.89 0 4.228-1.295 4.615-4.193h3.362zm-12.16-7.997v2.292h8.495v-2.292c0-3.415-1.595-5.016-4.31-5.016-2.63 0-4.184 1.6-4.184 5.016zM60.674 61.46h3.363c.043 2.51 1.552 4.194 4.44 4.194 2.46 0 3.926-1.252 3.926-3.33 0-5.055-11.428-3.284-11.428-11.023 0-3.804 2.803-6.266 7.115-6.266 4.526 0 7.2 2.896 7.286 7.13h-3.32c-.043-2.464-1.423-3.976-3.967-3.976-2.33 0-3.71 1.21-3.71 3.156 0 4.8 11.427 2.94 11.427 11.024 0 3.89-2.845 6.53-7.286 6.53-4.872 0-7.804-3.158-7.847-7.437m18.898-.906v-7.308c0-5.23 2.934-8.212 7.503-8.212 4.703 0 7.505 2.98 7.676 8.212H91.3c-.085-3.328-1.596-4.93-4.227-4.93-2.543 0-4.053 1.602-4.053 4.93v7.308c0 3.372 1.51 4.927 4.053 4.927 2.674 0 4.185-1.554 4.313-4.926h3.407c-.13 5.274-3.063 8.255-7.72 8.255-4.57 0-7.502-2.982-7.502-8.256m34.272-6.01v13.792h-3.363V54.72c0-4.63-1.208-6.445-3.707-6.445-2.718 0-4.53 2.248-4.53 6.14v13.92H98.88v-31.17h3.363v10.98c1.164-1.902 2.976-3.11 5.434-3.11 3.924 0 6.165 2.938 6.165 9.51m19.305-1.644v15.436h-2.805l-.26-2.162c-.99 1.557-2.627 2.724-5.17 2.724-4.14 0-7.073-2.68-7.073-7.048 0-4.496 3.06-6.917 8.018-6.917h3.88v-1.99c0-2.983-1.248-4.625-3.837-4.625-2.197 0-3.79 1.212-3.965 3.502h-3.406c.17-4.15 3.06-6.786 7.46-6.786 4.57 0 7.157 2.938 7.157 7.867zm-3.408 5.06h-3.925c-2.933 0-4.525 1.383-4.525 3.933 0 2.51 1.68 3.848 4.267 3.848 2.587 0 4.182-1.643 4.182-4.02v-3.76zm23.19-20.924v31.3h-2.546l-.345-2.12c-1.123 1.558-3.104 2.638-5.22 2.638-4.223 0-7.156-3.114-7.156-8.775v-6.4c0-5.577 2.76-8.647 7.157-8.647 1.813 0 3.58.777 4.79 2.16V37.036h3.32zm-3.32 16.644c0-3.285-1.597-5.448-4.182-5.448-2.848 0-4.313 1.643-4.313 5.448v6.4c0 3.89 1.595 5.574 4.313 5.574 2.37 0 4.18-1.77 4.18-5.534v-6.44zm23.158-8.084v22.74h-2.543l-.433-2.68c-1.162 1.987-3.103 3.242-5.778 3.242-3.794 0-6.207-2.68-6.207-8.906V45.596h3.363v14.137c0 4.107 1.12 5.922 3.706 5.922 2.718 0 4.53-2.25 4.53-6.14v-13.92h3.362zm29.85 0l-5.52 22.74h-3.707l-2.328-9.727c-.69-2.856-1.38-6.573-1.55-8.39h-.132c-.17 1.817-.862 5.534-1.55 8.39l-2.374 9.726h-3.663l-5.52-22.74h3.534l2.415 11.24c.518 2.464 1.122 6.094 1.38 7.52h.13c.26-1.642.905-5.317 1.51-7.997l2.37-10.333h3.624l2.414 10.332c.56 2.68 1.25 6.354 1.51 7.996h.13c.213-1.426.86-5.056 1.378-7.52l2.413-11.24h3.537zM1 94h39V84H1z"/></g></svg>